<svg width="1920" height="1080" viewBox="0 0 1920 1080" fill="none" xmlns="http://www.w3.org/2000/svg">
  <defs>
    <linearGradient id="base" x1="0" y1="0" x2="1920" y2="1080" gradientUnits="userSpaceOnUse">
      <stop offset="0" stop-color="#DCEBFF"/>
      <stop offset="0.55" stop-color="#F2F8FF"/>
      <stop offset="1" stop-color="#E8F6FF"/>
    </linearGradient>
    <radialGradient id="orb1" cx="0" cy="0" r="1" gradientUnits="userSpaceOnUse" gradientTransform="translate(420 260) rotate(34) scale(760 520)">
      <stop stop-color="#0066FF" stop-opacity="0.36"/>
      <stop offset="1" stop-color="#0066FF" stop-opacity="0"/>
    </radialGradient>
    <radialGradient id="orb2" cx="0" cy="0" r="1" gradientUnits="userSpaceOnUse" gradientTransform="translate(1520 860) rotate(180) scale(840 520)">
      <stop stop-color="#0FA3B1" stop-opacity="0.26"/>
      <stop offset="1" stop-color="#0FA3B1" stop-opacity="0"/>
    </radialGradient>
    <linearGradient id="mesh" x1="200" y1="140" x2="1600" y2="940" gradientUnits="userSpaceOnUse">
      <stop stop-color="#0066FF" stop-opacity="0.14"/>
      <stop offset="1" stop-color="#0FA3B1" stop-opacity="0.06"/>
    </linearGradient>
  </defs>
  <rect width="1920" height="1080" fill="url(#base)"/>
  <rect width="1920" height="1080" fill="url(#orb1)"/>
  <rect width="1920" height="1080" fill="url(#orb2)"/>
  <g opacity="0.42">
    <path d="M0 820C230 720 410 720 650 820C890 920 1110 920 1360 810C1610 700 1770 720 1920 790" stroke="url(#mesh)" stroke-width="3"/>
    <path d="M0 660C250 560 430 570 700 665C970 760 1160 745 1410 655C1660 565 1790 575 1920 640" stroke="url(#mesh)" stroke-width="2"/>
    <path d="M80 500C320 420 530 430 780 520C1030 610 1230 600 1470 520C1710 440 1820 455 1920 500" stroke="url(#mesh)" stroke-width="2"/>
  </g>
  <g opacity="0.45" fill="#0066FF">
    <circle cx="210" cy="330" r="6"/>
    <circle cx="470" cy="240" r="5"/>
    <circle cx="760" cy="320" r="4"/>
    <circle cx="980" cy="250" r="5"/>
    <circle cx="1260" cy="350" r="6"/>
    <circle cx="1490" cy="280" r="5"/>
    <circle cx="1700" cy="390" r="6"/>
    <circle cx="420" cy="680" r="6"/>
    <circle cx="760" cy="760" r="5"/>
    <circle cx="1110" cy="700" r="6"/>
    <circle cx="1420" cy="760" r="5"/>
    <circle cx="1680" cy="690" r="6"/>
  </g>
  <g opacity="0.28" stroke="#0FA3B1" stroke-width="1.8">
    <path d="M210 330L470 240L760 320L980 250L1260 350L1490 280L1700 390"/>
    <path d="M420 680L760 760L1110 700L1420 760L1680 690"/>
    <path d="M760 320L760 760"/>
    <path d="M1260 350L1420 760"/>
  </g>
</svg>
